# xmcd
#
# Track frame offsets:
# 150
# 16090
# 30055
# 45197
# 64295
# 75257
# 88102
# 101015
# 118090
# 130332
#
# Disc length: 1970 seconds
#
#
# Revision: 0
# Processed by: cddbd v1.5.2PL0 Copyright (c) Steve Scherf et al.
# Submitted via: FreeRIP 2.951 
#
DISCID=6b07b00a
DTITLE=Various Artist - Country Valentine
DYEAR=1999
DGENRE=Country
TTITLE0=Let it Be Me - Willie Nelson
TTITLE1=Under Your Spell Again - Shelby Lynne
TTITLE2=Crazy Over You - Ricky van Shelton
TTITLE3=Now That We're Alone - Rodney Crowell
TTITLE4=Walk Through This World With Me - George Jones
TTITLE5=Let's Chase Each Other Around the Room - Merle Haggard
TTITLE6=Do Me With Love - Janie Fricke
TTITLE7=I Got You - Shenandoah
TTITLE8=Let It Be Your - Ricky Skaggs
TTITLE9=I Got Love - Exile
EXTD=
EXTT0=
EXTT1=
EXTT2=
EXTT3=
EXTT4=
EXTT5=
EXTT6=
EXTT7=
EXTT8=
EXTT9=
PLAYORDER=
